<?xml version="1.0" standalone="no"?>
<!DOCTYPE svg PUBLIC "-//W3C//DTD SVG 20010904//EN"
 "http://www.w3.org/TR/2001/REC-SVG-20010904/DTD/svg10.dtd">
<svg version="1.0" xmlns="http://www.w3.org/2000/svg"
 width="7001.000000pt" height="4001.000000pt" viewBox="0 0 7001.000000 4001.000000"
 preserveAspectRatio="xMidYMid meet">

<g transform="translate(0.000000,4001.000000) scale(0.100000,-0.100000)"
fill="#000000" stroke="none">
<path d="M7293 40002 l-7283 -2 0 -3675 c0 -2021 3 -3675 8 -3675 4 0 22 9 40
20 129 79 680 364 897 465 1357 629 2785 1015 4240 1144 389 35 525 42 955 48
1682 24 3224 -277 4717 -921 341 -147 890 -412 1253 -603 445 -235 767 -414
1710 -945 1351 -762 2044 -1112 2790 -1410 1135 -454 2155 -636 3115 -557 870
71 1708 352 2539 851 163 98 492 313 501 328 3 5 -57 91 -133 192 -423 558
-787 1109 -1480 2238 -803 1307 -1224 1930 -1738 2571 -544 678 -1215 1369
-1909 1964 -686 589 -1516 1179 -2310 1642 -302 177 -573 323 -602 326 -15 1
-3305 1 -7310 -1z"/>
<path d="M14971 39995 c3 -2 92 -54 198 -115 1603 -921 3029 -2113 4195 -3510
586 -702 1026 -1341 1893 -2750 603 -981 912 -1459 1242 -1920 137 -193 387
-526 400 -534 9 -6 189 124 374 271 429 340 923 775 1552 1368 1032 972 1143
1075 1515 1401 1554 1361 2758 1997 4335 2294 706 132 1373 184 2360 184 609
0 789 -5 1700 -49 935 -45 1167 -55 1653 -66 1129 -28 2089 41 2892 206 1245
257 2148 711 2934 1475 517 503 883 1054 1100 1654 l35 96 -14191 0 c-7805 0
-14189 -2 -14187 -5z"/>
<path d="M43750 39868 c-109 -345 -284 -709 -498 -1038 -522 -804 -1368 -1527
-2282 -1951 -875 -405 -1860 -624 -3190 -711 -262 -17 -1638 -17 -2005 0 -148
7 -547 26 -885 42 -1011 49 -1063 51 -1635 57 -999 11 -1714 -37 -2415 -162
-1445 -257 -2526 -793 -3890 -1929 -230 -192 -633 -547 -820 -722 -36 -33
-171 -159 -300 -279 -129 -121 -275 -258 -325 -305 -919 -881 -1612 -1489
-2179 -1916 -86 -64 -155 -120 -154 -125 2 -4 57 -70 123 -146 147 -170 568
-593 728 -733 988 -858 2093 -1404 3137 -1549 333 -46 728 -52 1030 -16 758
91 1446 398 2148 958 194 154 350 295 581 522 353 348 554 566 1155 1260 521
601 726 826 1036 1136 286 286 443 430 663 607 1189 954 2407 1198 3878 777
634 -182 1193 -428 2504 -1105 1030 -531 1518 -753 2075 -942 595 -201 1094
-291 1625 -292 355 0 608 30 930 109 930 229 1831 807 2751 1765 418 436 834
938 1340 1615 243 326 3458 4723 3462 4735 2 6 -5 10 -16 10 -48 0 -69 73 -30
110 29 27 64 25 92 -5 l24 -25 129 177 c71 98 133 184 137 191 6 9 -885 12
-4437 12 l-4445 0 -42 -132z m7834 -234 c20 -8 21 -48 1 -64 -23 -19 -55 -3
-55 29 0 40 15 50 54 35z m-784 -34 c0 -5 -4 -10 -10 -10 -5 0 -10 5 -10 10 0
6 5 10 10 10 6 0 10 -4 10 -10z m788 -739 c8 -5 12 -21 10 -37 -2 -23 -9 -30
-29 -32 -36 -4 -55 21 -41 53 12 25 36 32 60 16z m-788 -31 c0 -5 -4 -10 -10
-10 -5 0 -10 5 -10 10 0 6 5 10 10 10 6 0 10 -4 10 -10z m0 -770 c0 -5 -4 -10
-10 -10 -5 0 -10 5 -10 10 0 6 5 10 10 10 6 0 10 -4 10 -10z"/>
<path d="M51020 37478 c-1977 -2702 -2114 -2889 -2362 -3206 -1069 -1370
-1979 -2194 -2943 -2667 -588 -288 -1138 -427 -1755 -442 -520 -12 -996 59
-1583 237 -586 177 -1158 430 -2280 1009 -934 481 -1258 638 -1675 812 -585
244 -1063 381 -1576 452 -218 29 -749 32 -946 4 -605 -87 -1094 -272 -1619
-615 -335 -218 -612 -446 -975 -802 -312 -306 -542 -558 -1116 -1220 -568
-655 -791 -901 -1100 -1210 -989 -989 -1852 -1461 -2910 -1592 -68 -8 -225
-13 -450 -13 -303 1 -366 3 -515 23 -648 88 -1252 288 -1889 625 -800 423
-1536 1019 -2181 1764 -61 71 -101 110 -109 105 -6 -4 -103 -68 -216 -143
-1003 -664 -1897 -1002 -2955 -1116 -205 -22 -858 -25 -1070 -5 -1267 120
-2480 549 -4250 1504 -201 109 -629 346 -965 536 -1162 657 -1471 824 -2030
1105 -455 229 -802 386 -1195 542 -2272 899 -4908 995 -7419 270 -981 -283
-1932 -690 -2783 -1192 l-143 -84 0 -8879 c0 -4884 2 -8880 5 -8880 3 0 1778
524 3944 1165 2166 641 3950 1165 3964 1165 19 0 411 -367 1753 -1641 951
-903 1765 -1676 1809 -1718 44 -43 310 -295 590 -561 281 -265 551 -522 600
-570 50 -47 765 -727 1590 -1510 825 -782 1506 -1430 1513 -1438 6 -9 12 -26
12 -38 0 -17 -2194 -9162 -2216 -9236 -5 -17 374 -18 7854 -18 l7859 0 220
323 c121 177 382 563 580 857 198 294 411 609 473 700 875 1273 1411 1933
2176 2680 1195 1167 2493 1875 3804 2074 1216 185 2485 -26 3965 -659 465
-199 1012 -466 1543 -754 l243 -131 167 34 c546 112 978 151 1569 143 473 -6
820 -41 1307 -132 697 -130 1274 -286 2681 -725 1414 -441 2155 -616 2955
-697 253 -25 859 -25 1090 0 1438 159 2550 863 3765 2382 300 377 559 731
1140 1565 586 841 783 1110 1043 1420 1111 1331 2390 2200 3600 2445 254 51
426 68 702 69 269 1 377 -8 610 -50 815 -149 1535 -590 2241 -1375 299 -333
561 -676 1119 -1464 468 -662 768 -1054 996 -1305 176 -194 262 -282 400 -410
614 -573 1325 -885 2104 -925 63 -3 141 -8 173 -11 l57 -5 0 16976 0 16975
-8573 0 -8573 0 -1844 -2522z m7606 2348 c93 -43 154 -154 140 -254 -29 -213
-295 -296 -436 -136 -45 52 -60 93 -60 167 0 106 55 190 152 232 52 23 145 19
204 -9z m-805 2 c53 -15 113 -69 139 -123 18 -38 21 -59 18 -120 -3 -62 -8
-80 -33 -117 -17 -23 -53 -56 -80 -73 -42 -26 -58 -30 -119 -30 -60 0 -79 4
-119 28 -147 87 -164 281 -35 391 63 54 144 70 229 44z m1546 1 c159 -59 213
-253 106 -379 -51 -60 -104 -84 -183 -84 -74 0 -119 18 -169 66 -45 44 -62 82
-68 148 -10 102 38 189 128 234 57 28 134 35 186 15z m-2323 -21 c23 -7 59
-30 81 -53 69 -68 83 -164 39 -253 -66 -133 -238 -159 -344 -52 -107 106 -81
278 52 344 57 29 109 33 172 14z m3111 -7 c49 -22 99 -77 115 -126 20 -61 9
-148 -26 -198 -44 -62 -104 -92 -184 -92 -71 1 -108 15 -154 61 -46 47 -60 83
-60 154 0 99 49 175 134 209 41 16 131 12 175 -8z m775 -30 c52 -27 92 -90 98
-153 3 -44 -1 -62 -25 -107 -89 -170 -345 -117 -361 73 -13 158 145 260 288
187z m-4616 -14 c113 -87 97 -266 -29 -327 -93 -45 -210 -7 -256 82 -31 62
-24 154 17 204 47 58 87 76 165 72 54 -3 73 -9 103 -31z m-821 -1 c139 -59
134 -257 -8 -311 -109 -42 -225 37 -225 154 0 125 119 206 233 157z m6197 -5
c94 -50 118 -177 47 -258 -76 -87 -201 -82 -268 10 -38 53 -41 136 -6 188 51
76 148 102 227 60z m-6961 -30 c90 -64 91 -179 1 -239 -29 -20 -44 -23 -88
-20 -103 9 -161 109 -116 204 19 41 33 52 81 70 44 15 87 10 122 -15z m7730 2
c47 -36 65 -70 64 -122 -1 -84 -59 -141 -143 -141 -153 0 -201 201 -65 271 47
24 105 21 144 -8z m-8519 -18 c62 -32 78 -129 29 -181 -74 -79 -204 -30 -204
77 0 89 95 145 175 104z m9302 -24 c34 -38 38 -100 8 -148 -41 -69 -149 -65
-197 6 -27 40 -29 71 -7 117 23 47 58 65 118 60 41 -3 55 -9 78 -35z m717 8
c35 -12 61 -53 61 -94 0 -40 -50 -85 -95 -85 -44 0 -95 45 -95 84 0 40 22 78
55 92 37 16 35 16 74 3z m-10784 -25 c68 -74 -20 -189 -108 -142 -34 18 -46
39 -47 81 0 53 35 87 90 87 31 0 47 -6 65 -26z m11563 -10 c26 -18 30 -74 6
-98 -24 -24 -80 -20 -98 6 -22 31 -20 58 6 85 25 27 54 29 86 7z m762 -29 c26
-32 -13 -81 -47 -59 -35 22 -23 74 17 74 10 0 23 -7 30 -15z m755 -25 c-3 -5
-10 -10 -16 -10 -5 0 -9 5 -9 10 0 6 7 10 16 10 8 0 12 -4 9 -10z m-7631 -524
c94 -39 156 -137 156 -249 0 -85 -26 -143 -88 -197 -173 -152 -442 -30 -442
200 0 120 87 231 203 261 41 10 129 3 171 -15z m-769 -24 c91 -46 135 -119
135 -222 0 -76 -21 -130 -70 -178 -45 -45 -84 -63 -149 -69 -108 -10 -195 36
-246 129 -74 135 -9 300 140 356 43 17 144 8 190 -16z m1560 -6 c176 -104 162
-361 -25 -445 -90 -41 -215 -17 -282 55 -122 131 -70 347 98 410 59 22 153 13
209 -20z m740 -8 c137 -70 176 -239 83 -352 -45 -55 -101 -80 -178 -81 -53 0
-73 5 -111 27 -174 102 -137 370 58 417 42 11 117 5 148 -11z m-3088 -5 c123
-58 166 -214 91 -328 -122 -183 -407 -98 -408 123 0 131 91 221 223 222 35 0
73 -7 94 -17z m-805 -15 c55 -16 112 -74 127 -131 48 -170 -126 -315 -280
-234 -120 64 -144 222 -49 317 56 56 123 72 202 48z m4670 -15 c53 -31 90 -86
96 -142 7 -72 -5 -117 -41 -158 -65 -73 -156 -92 -243 -48 -61 31 -95 79 -102
145 -7 71 5 116 41 157 63 72 170 92 249 46z m-5428 -23 c120 -58 125 -228 10
-296 -38 -22 -54 -26 -100 -22 -94 8 -154 72 -154 165 0 56 15 96 46 125 57
51 130 61 198 28z m6204 -9 c66 -46 90 -144 55 -218 -9 -19 -34 -48 -56 -64
-33 -24 -50 -29 -96 -29 -89 0 -150 46 -171 128 -18 74 14 150 84 194 43 27
139 21 184 -11z m738 -12 c31 -15 48 -32 63 -63 26 -52 26 -79 1 -134 -15 -33
-29 -47 -62 -62 -55 -25 -89 -25 -139 1 -43 21 -78 80 -79 128 0 48 38 108 83
130 53 26 80 26 133 0z m-7711 -9 c44 -27 69 -81 62 -136 -12 -112 -137 -168
-229 -102 -81 57 -75 196 10 243 40 21 118 19 157 -5z m-791 -19 c37 -25 55
-57 56 -99 1 -128 -171 -169 -226 -54 -51 107 73 217 170 153z m9298 -20 c23
-26 28 -41 28 -82 0 -45 -4 -55 -34 -85 -28 -28 -42 -34 -75 -34 -23 0 -55 7
-71 15 -58 30 -77 113 -41 169 29 43 59 57 115 53 41 -4 55 -10 78 -36z
m-10067 -16 c50 -49 19 -153 -47 -156 -63 -3 -102 21 -111 69 -6 33 15 86 40
101 34 20 92 13 118 -14z m10819 -6 c54 -64 14 -151 -69 -151 -83 0 -123 87
-69 151 21 26 33 31 69 31 36 0 48 -5 69 -31z m-11616 -5 c16 -11 22 -25 22
-54 0 -43 -26 -70 -67 -70 -56 0 -84 80 -41 120 26 24 56 26 86 4z m12360 -1
c35 -30 38 -68 8 -97 -30 -31 -69 -33 -96 -6 -20 20 -26 65 -12 86 10 15 44
33 63 34 9 0 26 -8 37 -17z m760 -22 c8 -5 12 -21 10 -37 -3 -26 -7 -29 -38
-29 -29 0 -36 4 -38 23 -6 41 31 65 66 43z m757 -31 c3 -5 -1 -10 -9 -10 -9 0
-16 5 -16 10 0 6 4 10 9 10 6 0 13 -4 16 -10z m-7627 -549 c147 -75 184 -263
77 -388 -54 -63 -110 -86 -199 -81 -92 4 -156 40 -201 112 -41 67 -48 169 -15
239 28 58 89 113 150 132 55 18 137 12 188 -14z m-816 5 c104 -31 168 -118
168 -227 -1 -142 -97 -239 -237 -239 -136 1 -235 100 -236 235 -1 109 63 198
163 230 58 18 87 18 142 1z m1583 -12 c141 -66 180 -254 78 -373 -94 -110
-268 -113 -362 -6 -45 52 -61 93 -61 163 0 144 114 249 257 238 28 -3 68 -12
88 -22z m-2364 -8 c51 -9 123 -75 145 -131 36 -95 -1 -205 -88 -262 -36 -24
-51 -28 -118 -28 -67 0 -82 4 -118 27 -134 89 -127 302 13 376 33 17 92 31
115 27 8 -2 31 -6 51 -9z m3145 -21 c62 -37 97 -93 102 -165 5 -70 -10 -120
-51 -166 -49 -57 -99 -77 -178 -72 -89 5 -142 39 -181 117 -30 59 -34 102 -17
166 14 52 92 128 145 143 57 16 129 7 180 -23z m-3867 -28 c54 -36 81 -90 81
-165 0 -79 -34 -133 -108 -169 -116 -57 -244 7 -273 137 -19 82 28 175 105
211 58 28 141 22 195 -14z m4638 -3 c107 -85 108 -237 3 -313 -162 -117 -373
53 -291 235 37 82 95 116 188 111 52 -2 69 -8 100 -33z m-5436 -10 c57 -29 97
-114 84 -177 -19 -88 -92 -142 -181 -135 -92 8 -154 72 -154 161 0 134 131
213 251 151z m6139 19 c19 -3 52 -24 75 -47 35 -33 45 -50 50 -89 16 -108 -57
-197 -163 -197 -110 0 -178 72 -170 179 5 70 31 111 90 140 46 22 66 25 118
14z m-6931 -41 c73 -36 97 -108 62 -186 -16 -38 -29 -50 -66 -67 -62 -28 -114
-19 -160 27 -116 115 19 301 164 226z m7738 -2 c92 -56 87 -202 -9 -251 -99
-51 -211 16 -211 125 0 85 59 146 143 146 27 0 58 -8 77 -20z m747 -15 c41
-20 66 -63 66 -115 0 -34 -6 -48 -34 -76 -28 -28 -42 -34 -75 -34 -57 0 -95
22 -116 66 -29 61 -2 133 58 159 42 18 62 18 101 0z m-9256 -11 c70 -49 66
-161 -8 -199 -74 -38 -159 1 -175 81 -13 72 40 134 115 134 25 0 56 -7 68 -16z
m-770 -39 c43 -50 22 -123 -42 -145 -63 -20 -116 21 -116 91 0 52 48 93 99 85
21 -3 45 -16 59 -31z m10813 6 c32 -33 37 -67 15 -110 -14 -26 -53 -51 -81
-51 -48 0 -95 52 -95 105 0 40 50 85 95 85 27 0 44 -8 66 -29z m738 -6 c38
-19 48 -60 23 -94 -40 -54 -122 -28 -122 37 0 33 26 60 68 71 2 1 16 -6 31
-14z m-12347 -12 c10 -9 18 -30 18 -49 0 -57 -69 -85 -110 -44 -60 60 29 150
92 93z m-784 -51 c-2 -23 -8 -27 -33 -27 -24 0 -31 5 -33 24 -5 32 23 54 50
40 13 -7 18 -19 16 -37z m13902 34 c6 -8 10 -25 8 -38 -2 -19 -9 -23 -38 -23
-29 0 -36 4 -38 23 -4 28 14 52 38 52 10 0 23 -7 30 -14z m751 -29 c-1 -12
-15 -9 -19 4 -3 6 1 10 8 8 6 -3 11 -8 11 -12z m-7630 -574 c35 -19 64 -43 84
-71 27 -40 30 -51 30 -126 0 -73 -3 -87 -28 -124 -44 -67 -97 -96 -181 -100
-66 -3 -75 -1 -126 30 -42 25 -61 45 -82 87 -104 198 102 405 303 304z m-750
-18 c23 -17 53 -50 66 -75 35 -64 30 -168 -9 -228 -93 -139 -307 -127 -380 23
-37 75 -32 153 16 223 46 68 102 94 193 90 60 -3 78 -8 114 -33z m1518 15
c141 -71 162 -259 41 -362 -108 -93 -272 -61 -335 65 -56 114 -14 240 100 300
44 23 146 22 194 -3z m-2355 -1 c57 -16 121 -85 134 -145 15 -68 0 -132 -44
-182 -92 -108 -264 -89 -332 38 -19 37 -23 56 -20 106 5 82 38 132 109 168 57
28 93 32 153 15z m3111 -8 c190 -86 145 -372 -61 -389 -129 -11 -224 76 -224
203 0 150 149 248 285 186z m-3869 -20 c104 -47 139 -196 67 -281 -87 -105
-246 -88 -309 32 -18 35 -18 131 0 166 45 87 152 124 242 83z m4659 -11 c76
-47 105 -153 65 -235 -81 -168 -330 -122 -348 65 -8 83 47 165 127 191 40 13
118 2 156 -21z m741 -9 c110 -50 126 -203 29 -277 -92 -70 -230 -19 -256 95
-22 99 56 197 161 200 14 0 43 -8 66 -18z m-6154 -16 c66 -50 84 -151 38 -217
-34 -51 -75 -72 -137 -72 -155 0 -213 211 -81 295 43 26 140 23 180 -6z m-801
-10 c92 -48 90 -193 -2 -241 -23 -11 -47 -15 -83 -11 -41 4 -55 10 -83 41 -27
29 -33 44 -33 81 0 25 7 59 15 76 32 62 121 87 186 54z m7750 -21 c44 -42 56
-93 35 -148 -43 -113 -206 -117 -250 -6 -21 52 -20 65 4 116 26 54 68 76 133
71 36 -3 55 -11 78 -33z m-8554 6 c8 0 28 -13 44 -29 23 -24 29 -38 29 -74 0
-81 -65 -131 -141 -108 -67 20 -98 96 -65 159 18 35 75 65 104 56 8 -2 20 -4
29 -4z m9317 -29 c24 -25 29 -38 29 -77 0 -41 -4 -51 -36 -81 -41 -37 -79 -43
-127 -18 -39 20 -60 53 -60 93 0 107 119 158 194 83z m-10070 -12 c21 -16 26
-29 26 -64 0 -35 -5 -48 -26 -64 -65 -51 -156 1 -139 79 14 63 88 89 139 49z
m10821 -4 c31 -30 33 -82 4 -119 -16 -21 -29 -26 -64 -26 -35 0 -48 5 -64 26
-47 60 -10 144 64 144 25 0 44 -8 60 -25z m-11610 -20 c14 -13 25 -33 25 -45
0 -27 -35 -60 -64 -60 -25 0 -66 41 -66 67 0 19 45 63 65 63 9 0 27 -11 40
-25z m12359 4 c31 -25 34 -61 6 -89 -40 -40 -100 -12 -100 45 0 24 7 39 22 49
29 21 40 20 72 -5z m-13143 -25 c17 -21 0 -49 -32 -49 -27 0 -37 28 -19 50 16
19 34 19 51 -1z m13910 0 c17 -21 0 -49 -31 -49 -31 0 -48 28 -31 49 8 9 21
16 31 16 10 0 23 -7 31 -16z m749 -24 c0 -5 -2 -10 -4 -10 -3 0 -8 5 -11 10
-3 6 -1 10 4 10 6 0 11 -4 11 -10z m-8410 -599 c52 -27 92 -90 98 -153 3 -44
-1 -62 -25 -107 -89 -170 -345 -117 -361 73 -13 158 145 260 288 187z m787 -4
c79 -55 112 -173 70 -253 -57 -110 -198 -144 -297 -73 -86 62 -107 197 -44
276 68 86 188 108 271 50z m716 22 c50 -13 113 -71 128 -116 19 -58 7 -145
-25 -187 -42 -56 -96 -79 -172 -74 -52 3 -70 9 -100 34 -51 41 -77 94 -77 158
0 83 50 153 129 181 48 17 68 18 117 4z m-2276 -31 c122 -73 117 -255 -7 -318
-165 -84 -338 96 -245 255 13 23 35 49 48 58 61 40 144 42 204 5z m3084 6 c70
-35 109 -125 89 -202 -22 -90 -87 -142 -175 -142 -110 0 -185 76 -185 187 0
52 34 120 73 146 57 37 139 42 198 11z m-3888 -8 c108 -46 136 -189 53 -272
-68 -68 -169 -65 -238 7 -77 81 -55 209 45 258 49 24 94 27 140 7z m4643 -5
c56 -25 87 -71 92 -137 8 -101 -61 -177 -163 -177 -60 0 -102 21 -137 67 -33
45 -33 147 1 195 27 37 91 71 136 71 17 0 48 -9 71 -19z m-5398 -27 c61 -40
81 -137 41 -201 -27 -44 -66 -63 -128 -63 -39 0 -56 6 -81 26 -88 74 -78 191
21 242 49 25 104 24 147 -4z m6161 11 c54 -27 81 -71 81 -128 0 -86 -45 -140
-125 -152 -52 -8 -120 26 -147 75 -24 43 -20 119 9 158 40 56 124 77 182 47z
m-6940 -33 c26 -17 51 -68 51 -103 0 -35 -28 -84 -59 -102 -59 -35 -147 -14
-176 43 -61 117 72 235 184 162z m7706 12 c83 -39 95 -148 24 -209 -24 -19
-42 -25 -79 -25 -133 0 -175 175 -57 234 41 20 71 20 112 0z m-8484 -43 c55
-55 30 -148 -45 -167 -74 -18 -140 48 -122 122 19 75 112 100 167 45z m9273 3
c63 -64 17 -174 -72 -174 -90 1 -136 108 -73 171 40 40 106 41 145 3z m-10080
-5 c84 -39 26 -169 -61 -138 -54 18 -69 84 -28 124 26 27 51 31 89 14z m10834
-9 c33 -31 30 -92 -4 -119 -34 -27 -64 -27 -98 0 -56 44 -22 139 49 139 18 0
41 -9 53 -20z m-11600 -23 c17 -13 15 -52 -4 -71 -37 -37 -103 -1 -90 49 10
40 57 51 94 22z m12360 0 c15 -12 16 -59 0 -75 -20 -20 -66 -14 -82 11 -37 55
28 106 82 64z m-13150 -33 c3 -22 -21 -39 -39 -28 -11 6 -12 38 -2 48 13 13
38 1 41 -20z m13910 -1 c3 -22 -28 -40 -48 -28 -12 7 -13 38 -3 49 15 14 48 1
51 -21z m-7685 -617 c65 -27 116 -119 101 -183 -21 -88 -86 -143 -168 -143
-152 0 -226 165 -128 282 46 55 126 73 195 44z m792 -9 c26 -14 48 -37 63 -67
41 -83 22 -168 -51 -221 -74 -54 -194 -34 -242 40 -31 48 -39 91 -26 139 31
115 153 167 256 109z m765 1 c63 -32 92 -85 87 -160 -6 -103 -79 -164 -183
-156 -98 8 -160 83 -152 183 10 125 133 190 248 133z m-2325 -8 c112 -54 113
-231 1 -284 -138 -65 -286 77 -218 210 45 89 128 117 217 74z m3092 4 c107
-51 114 -221 11 -284 -74 -45 -184 -15 -227 60 -77 138 71 292 216 224z
m-3858 -22 c46 -34 66 -71 66 -121 0 -160 -220 -208 -279 -61 -20 52 -20 75 3
126 35 76 143 105 210 56z m4643 -3 c87 -62 75 -203 -22 -251 -97 -49 -210 21
-210 129 0 70 43 129 105 146 34 9 96 -3 127 -24z m-5433 -7 c122 -65 72 -242
-68 -242 -37 0 -49 6 -82 39 -35 35 -39 44 -39 89 0 104 98 163 189 114z
m6174 4 c125 -52 81 -246 -56 -246 -76 0 -127 54 -127 133 0 96 91 152 183
113z m-6930 -46 c47 -53 33 -137 -30 -169 -57 -29 -135 4 -152 63 -31 116 103
194 182 106z m7723 6 c91 -91 -12 -228 -131 -174 -33 15 -55 56 -55 104 0 54
53 104 110 104 34 0 48 -6 76 -34z m-8508 -22 c31 -36 29 -79 -7 -115 -69 -68
-177 3 -140 93 25 60 103 72 147 22z m9245 24 c34 -18 46 -39 47 -81 0 -77
-87 -114 -147 -63 -22 19 -28 32 -28 66 0 70 67 111 128 78z m-10058 -18 c52
-20 52 -98 0 -122 -53 -24 -111 34 -87 87 10 21 26 33 59 44 1 1 13 -3 28 -9z
m10835 -10 c28 -28 27 -84 -2 -104 -49 -35 -108 -7 -108 50 0 41 29 74 65 74
14 0 34 -9 45 -20z m-11596 -32 c15 -24 -3 -52 -37 -56 -33 -4 -53 28 -37 59
14 25 58 23 74 -3z m12360 6 c20 -51 -17 -88 -60 -59 -27 17 -29 27 -14 56 13
24 65 26 74 3z m-13157 -19 c7 -20 -2 -29 -21 -22 -9 4 -13 13 -10 22 8 19 23
19 31 0z m13913 -5 c0 -13 -7 -20 -20 -20 -13 0 -20 7 -20 20 0 13 7 20 20 20
13 0 20 -7 20 -20z m1140 -415 l285 -285 285 285 c215 215 292 285 310 285 35
0 70 -37 70 -74 0 -27 -35 -66 -282 -313 l-283 -283 283 -283 c269 -269 283
-285 280 -317 -4 -41 -45 -75 -80 -67 -12 4 -149 132 -303 287 l-280 280 -285
-285 c-191 -190 -293 -285 -307 -285 -35 0 -73 38 -73 73 0 28 31 63 282 314
l283 283 -283 283 c-305 305 -310 311 -260 364 45 48 52 43 358 -262z m-8812
-235 c67 -41 90 -120 54 -189 -51 -100 -186 -106 -250 -11 -34 50 -27 128 14
171 16 17 38 35 49 39 36 15 99 11 133 -10z m779 0 c90 -54 83 -209 -11 -254
-72 -34 -155 -11 -197 56 -39 63 -14 161 51 202 36 22 118 20 157 -4z m770 0
c91 -55 86 -202 -9 -251 -92 -47 -194 4 -214 107 -8 45 26 118 68 144 43 26
113 26 155 0z m-2321 -9 c35 -21 64 -75 64 -118 0 -42 -32 -94 -71 -115 -92
-49 -202 13 -202 116 0 49 24 96 62 119 36 22 109 21 147 -2z m3092 -1 c84
-51 79 -185 -9 -232 -94 -50 -199 10 -199 114 0 87 48 137 130 138 28 0 58 -8
78 -20z m-3859 -16 c120 -101 -13 -285 -147 -204 -70 43 -78 136 -17 197 29
29 40 33 83 33 40 0 57 -6 81 -26z m4616 14 c71 -32 86 -142 26 -202 -28 -27
-38 -31 -87 -31 -51 0 -58 3 -90 37 -27 30 -34 46 -34 78 0 79 47 129 122 130
20 0 49 -5 63 -12z m-5394 -35 c34 -31 43 -75 25 -117 -19 -45 -52 -66 -102
-66 -115 0 -146 159 -40 206 40 17 84 9 117 -23z m6154 23 c69 -29 84 -124 28
-180 -21 -21 -35 -26 -75 -26 -41 0 -54 5 -79 29 -65 66 -18 187 74 190 10 1
33 -6 52 -13z m-6955 -21 c53 -27 60 -106 14 -146 -68 -58 -166 -2 -150 86 12
64 75 92 136 60z m7723 3 c34 -18 46 -40 47 -85 0 -34 -5 -46 -31 -67 -17 -15
-43 -26 -59 -26 -16 0 -42 11 -59 26 -26 21 -31 33 -31 68 0 23 6 49 13 58 29
36 80 48 120 26z m-8493 -28 c24 -24 27 -82 4 -104 -45 -46 -116 -19 -122 46
-2 29 2 40 24 57 34 26 68 27 94 1z m9280 -7 c26 -33 21 -79 -11 -105 -47 -39
-119 -4 -119 58 0 71 86 103 130 47z m-10066 -12 c38 -42 -13 -108 -59 -77
-26 17 -31 59 -10 80 22 21 48 20 69 -3z m10818 2 c26 -24 23 -59 -8 -80 -24
-15 -29 -15 -53 -2 -32 18 -39 54 -15 80 21 23 51 24 76 2z m-11602 -18 c18
-21 5 -45 -25 -45 -40 0 -34 54 6 59 4 1 12 -6 19 -14z m12364 -7 c14 -22 -12
-52 -37 -42 -17 6 -23 44 -10 58 11 11 35 3 47 -16z m-6159 -672 c106 -45 91
-204 -21 -232 -60 -15 -131 30 -147 95 -18 72 37 141 121 150 7 0 28 -5 47
-13z m-1558 -6 c8 0 28 -13 44 -29 39 -40 41 -105 3 -150 -84 -100 -240 11
-180 127 18 35 75 65 104 56 8 -2 20 -4 29 -4z m819 -24 c30 -30 34 -40 34
-84 0 -43 -5 -55 -30 -80 -78 -79 -203 -27 -203 84 0 71 45 113 122 114 36 0
49 -6 77 -34z m1532 18 c56 -39 67 -131 21 -180 -70 -74 -192 -37 -206 63 -10
77 40 133 117 133 25 0 56 -7 68 -16z m774 -11 c52 -46 56 -122 10 -168 -94
-94 -238 17 -177 135 30 59 119 76 167 33z m-3887 2 c58 -28 75 -111 31 -158
-66 -71 -176 -30 -176 65 0 48 21 82 60 97 35 14 48 13 85 -4z m4635 0 c66
-34 76 -121 19 -169 -80 -68 -197 18 -160 117 11 29 64 67 94 67 10 0 31 -7
47 -15z m-5396 -26 c34 -27 37 -91 4 -126 -51 -54 -148 -14 -148 62 0 74 84
111 144 64z m6190 -10 c30 -35 32 -58 11 -99 -16 -31 -70 -55 -101 -44 -40 15
-64 46 -64 86 0 85 100 122 154 57z m-6990 10 c13 -7 30 -25 37 -42 35 -84
-95 -135 -133 -52 -15 34 -1 76 32 92 31 16 33 16 64 2z m7744 -9 c45 -42 16
-130 -42 -130 -39 0 -57 11 -71 44 -32 75 54 140 113 86z m-8499 -31 c13 -24
13 -29 -2 -53 -19 -28 -63 -36 -85 -14 -18 18 -15 75 6 87 28 18 65 8 81 -20z
m9261 11 c24 -24 25 -47 3 -72 -18 -20 -63 -24 -81 -6 -17 17 -15 64 4 82 21
22 50 20 74 -4z m-10051 -19 c13 -24 -8 -55 -34 -50 -28 6 -42 34 -26 53 18
22 48 20 60 -3z m10809 10 c8 -4 12 -19 10 -32 -2 -19 -9 -24 -33 -24 -24 0
-31 5 -33 24 -4 23 11 41 33 41 6 0 16 -4 23 -9z m-11601 -37 c-9 -9 -28 6
-21 18 4 6 10 6 17 -1 6 -6 8 -13 4 -17z m12363 11 c0 -8 -4 -15 -9 -15 -13 0
-22 16 -14 24 11 11 23 6 23 -9z m-6155 -689 c18 -8 38 -23 44 -34 22 -41 9
-101 -28 -129 -27 -21 -87 -16 -118 11 -50 43 -32 130 32 157 28 11 31 11 70
-5z m770 0 c40 -17 55 -42 55 -91 0 -51 -36 -85 -90 -85 -57 0 -90 34 -90 93
0 46 24 80 65 90 11 3 21 5 23 6 1 0 18 -5 37 -13z m-2294 -25 c35 -35 38 -77
9 -114 -60 -77 -187 -6 -150 83 27 65 92 79 141 31z m780 3 c35 -37 33 -98 -4
-130 -57 -49 -142 -18 -153 57 -5 28 -1 41 21 67 22 27 34 32 69 32 33 0 48
-6 67 -26z m2310 -3 c35 -35 38 -77 9 -114 -43 -54 -128 -39 -149 26 -31 92
72 155 140 88z m-3866 -6 c57 -56 0 -149 -79 -129 -85 21 -65 154 24 154 19 0
40 -9 55 -25z m4632 3 c33 -31 32 -90 -3 -117 -34 -27 -64 -27 -98 0 -20 16
-26 29 -26 59 0 72 76 106 127 58z m-5417 -8 c24 -24 26 -72 4 -94 -40 -40
-114 -8 -114 49 0 26 43 65 71 65 11 0 28 -9 39 -20z m6171 9 c27 -14 41 -53
29 -83 -26 -70 -130 -50 -130 25 0 53 53 84 101 58z m-6945 -34 c15 -23 15
-27 0 -50 -19 -29 -51 -32 -78 -8 -22 20 -23 41 -1 65 23 26 59 23 79 -7z
m7722 13 c7 -7 12 -24 12 -38 0 -33 -17 -50 -50 -50 -33 0 -50 17 -50 50 0 33
17 50 50 50 14 0 31 -5 38 -12z m-8510 -10 c29 -29 1 -71 -39 -61 -13 4 -19
14 -19 33 0 37 33 53 58 28z m9270 0 c30 -30 -4 -77 -41 -57 -20 11 -23 55 -4
62 21 9 32 8 45 -5z m-10053 -28 c0 -22 -29 -18 -33 3 -3 14 1 18 15 15 10 -2
18 -10 18 -18z m10815 0 c0 -11 -7 -20 -15 -20 -8 0 -15 9 -15 20 0 11 7 20
15 20 8 0 15 -9 15 -20z m-6147 -728 c39 -34 4 -112 -50 -112 -31 0 -63 34
-63 68 0 35 10 49 40 60 28 10 47 6 73 -16z m768 10 c28 -23 30 -73 4 -102
-38 -42 -115 -11 -115 48 0 32 8 45 35 60 29 16 50 15 76 -6z m774 -7 c14 -13
25 -33 25 -43 0 -31 -38 -72 -68 -72 -33 0 -72 36 -72 67 0 30 42 73 70 73 12
0 32 -11 45 -25z m-2321 -1 c9 -8 16 -28 16 -44 0 -36 -23 -60 -57 -60 -55 0
-83 62 -46 102 20 22 66 24 87 2z m3090 0 c23 -22 21 -81 -3 -94 -47 -25 -101
1 -101 48 0 53 68 83 104 46z m-3866 -6 c7 -7 12 -24 12 -38 0 -33 -17 -50
-50 -50 -33 0 -50 17 -50 50 0 33 17 50 50 50 14 0 31 -5 38 -12z m4636 -4
c34 -34 11 -84 -39 -84 -35 0 -55 20 -55 54 0 22 28 46 55 46 13 0 31 -7 39
-16z m-5410 -16 c15 -24 -3 -52 -37 -56 -33 -4 -53 28 -37 59 14 25 58 23 74
-3z m6180 6 c12 -32 6 -55 -19 -66 -21 -9 -28 -8 -45 7 -37 33 -19 75 31 75
15 0 29 -7 33 -16z m-6966 -22 c4 -28 -24 -40 -45 -19 -14 13 -14 19 -3 32 18
22 44 15 48 -13z m7727 -2 c0 -18 -6 -26 -23 -28 -13 -2 -25 3 -28 12 -10 26
4 48 28 44 17 -2 23 -10 23 -28z m-8515 0 c0 -5 -4 -10 -10 -10 -5 0 -10 5
-10 10 0 6 5 10 10 10 6 0 10 -4 10 -10z m9278 -1 c-2 -6 -8 -10 -13 -10 -5 0
-11 4 -13 10 -2 6 4 11 13 11 9 0 15 -5 13 -11z m-54998 -394 l285 -285 285
285 c208 208 291 285 308 285 13 0 34 -11 47 -25 52 -51 49 -55 -257 -362
l-283 -283 283 -283 c306 -307 309 -311 257 -362 -13 -14 -34 -25 -47 -25 -16
0 -102 80 -308 285 l-285 285 -285 -285 c-310 -309 -314 -312 -365 -260 -14
13 -25 34 -25 47 0 16 81 103 287 310 l288 288 -289 289 c-271 271 -288 291
-282 318 4 15 16 36 28 46 47 40 55 34 358 -268z m49600 -349 c19 -23 8 -61
-18 -64 -44 -7 -67 32 -36 62 19 20 38 20 54 2z m778 2 c21 -21 14 -57 -14
-70 -23 -11 -29 -10 -45 11 -23 28 -23 35 -3 55 18 19 45 21 62 4z m766 -1
c11 -8 17 -23 14 -38 -2 -20 -8 -24 -38 -24 -30 0 -36 4 -38 24 -4 22 18 51
38 51 3 0 14 -6 24 -13z m-3094 -12 c17 -20 5 -45 -20 -45 -11 0 -23 7 -26 15
-6 15 11 45 26 45 4 0 13 -7 20 -15z m785 -5 c8 -27 -12 -52 -39 -48 -21 3
-32 28 -22 54 8 22 54 18 61 -6z m3090 0 c8 -27 -12 -52 -39 -48 -21 3 -32 28
-22 54 8 22 54 18 61 -6z m749 14 c9 -3 16 -17 16 -30 0 -19 -5 -24 -24 -24
-28 0 -37 17 -24 43 10 19 10 19 32 11z m-5400 -35 c-8 -14 -34 -11 -34 4 0 8
3 17 7 20 9 9 34 -13 27 -24z m6183 15 c7 -18 -17 -38 -31 -24 -11 11 -1 40
14 40 6 0 13 -7 17 -16z m-3873 -785 c-3 -5 -10 -7 -15 -3 -5 3 -7 10 -3 15 3
5 10 7 15 3 5 -3 7 -10 3 -15z m770 0 c-3 -5 -10 -7 -15 -3 -5 3 -7 10 -3 15
3 5 10 7 15 3 5 -3 7 -10 3 -15z m776 6 c0 -8 -4 -15 -10 -15 -5 0 -10 7 -10
15 0 8 5 15 10 15 6 0 10 -7 10 -15z m770 -1 c0 -8 -5 -12 -10 -9 -6 4 -8 11
-5 16 9 14 15 11 15 -7z m2595 -1319 c217 -55 389 -215 466 -432 29 -82 37
-255 15 -346 -26 -110 -80 -209 -162 -296 -223 -237 -561 -275 -836 -94 -211
139 -323 408 -274 658 9 45 34 117 56 164 33 69 57 100 128 171 93 93 166 137
285 171 79 23 241 25 322 4z m-2835 -6720 c38 -20 60 -63 60 -116 0 -35 -6
-48 -39 -80 -32 -32 -46 -39 -77 -39 -51 0 -83 18 -112 60 -19 28 -23 44 -19
80 10 89 106 137 187 95z m1242 -25 c39 -38 40 -42 36 -91 -4 -40 -12 -58 -37
-82 -28 -28 -38 -32 -87 -32 -51 0 -58 3 -90 37 -27 30 -34 46 -34 78 0 82 47
129 129 130 38 0 49 -5 83 -40z m1202 19 c56 -44 70 -110 36 -166 -50 -83
-174 -83 -216 -1 -20 38 -22 95 -5 127 31 58 134 80 185 40z m1231 -12 c61
-61 53 -154 -17 -197 -67 -40 -155 -13 -184 57 -21 50 -10 99 31 140 29 29 39
33 85 33 46 0 56 -4 85 -33z m1195 18 c54 -28 78 -117 46 -173 -46 -84 -176
-79 -222 9 -40 78 20 179 106 179 23 0 54 -7 70 -15z m-4898 -1205 c56 -16 88
-60 88 -122 0 -43 -4 -54 -33 -83 -43 -43 -79 -52 -131 -34 -108 37 -116 183
-13 230 50 22 43 21 89 9z m1256 -18 c75 -49 65 -174 -17 -217 -82 -42 -181
18 -181 110 0 105 110 165 198 107z m1185 14 c139 -59 92 -260 -57 -242 -132
16 -147 207 -20 246 40 12 41 12 77 -4z m1247 -15 c81 -56 71 -174 -17 -216
-64 -31 -137 -4 -168 62 -54 112 82 225 185 154z m1182 19 c56 -16 88 -60 88
-122 0 -43 -4 -54 -33 -83 -43 -43 -79 -52 -131 -34 -107 37 -114 184 -12 230
49 22 42 21 88 9z m-4852 -1225 c101 -52 93 -199 -14 -235 -57 -19 -124 9
-152 61 -55 107 61 228 166 174z m1215 1 c105 -44 96 -200 -13 -235 -149 -47
-231 173 -88 235 40 17 59 17 101 0z m1244 -14 c14 -10 32 -35 40 -55 27 -73
-10 -145 -87 -168 -35 -10 -45 -9 -78 7 -51 26 -77 63 -77 113 0 104 119 165
202 103z m1222 -8 c60 -57 59 -137 -1 -188 -62 -51 -140 -37 -187 33 -28 41
-29 75 -5 120 39 73 135 91 193 35z m1189 21 c101 -52 93 -199 -14 -235 -111
-36 -207 88 -146 188 34 55 104 76 160 47z m-58548 -784 c114 -29 208 -81 293
-163 85 -80 130 -148 171 -258 25 -69 28 -87 28 -210 0 -123 -3 -141 -28 -210
-42 -111 -86 -178 -174 -261 -203 -193 -492 -233 -745 -102 -107 55 -222 173
-276 283 -47 96 -71 194 -71 290 0 239 146 474 360 579 145 71 297 89 442 52z
m53715 -465 c26 -28 33 -44 33 -76 0 -81 -49 -130 -130 -130 -56 0 -109 48
-117 106 -16 123 130 191 214 100z m1215 6 c59 -58 43 -168 -27 -200 -36 -16
-90 -15 -125 3 -63 33 -80 129 -33 185 34 41 58 51 112 46 32 -3 51 -12 73
-34z m1195 18 c74 -45 83 -139 19 -197 -30 -28 -43 -33 -85 -33 -38 0 -56 6
-80 26 -67 56 -56 169 21 207 44 22 86 21 125 -3z m1221 0 c70 -43 78 -136 17
-197 -29 -29 -39 -33 -85 -33 -46 0 -56 4 -85 33 -19 19 -36 48 -40 69 -14 74
48 148 125 148 19 0 50 -9 68 -20z m1206 5 c42 -20 66 -63 66 -119 0 -36 -6
-52 -28 -77 -24 -27 -37 -33 -84 -37 -52 -4 -58 -2 -93 29 -108 100 5 267 139
204z m-4864 -1220 c53 -27 76 -109 48 -170 -32 -71 -142 -86 -202 -26 -27 28
-31 38 -31 87 0 51 3 58 37 90 30 27 46 34 78 34 23 0 54 -7 70 -15z m1241
-24 c34 -34 39 -44 39 -85 0 -38 -6 -52 -33 -82 -28 -31 -41 -37 -85 -42 -50
-4 -53 -3 -92 36 -34 34 -40 46 -40 82 0 78 51 129 129 130 37 0 49 -5 82 -39z
m1203 18 c58 -45 71 -114 33 -170 -60 -89 -183 -76 -221 23 -15 37 -15 49 -4
83 25 77 131 112 192 64z m1217 -2 c19 -13 40 -39 48 -61 20 -52 0 -111 -48
-143 -120 -80 -258 69 -169 182 39 50 113 60 169 22z m1209 8 c81 -42 79 -179
-2 -221 -48 -25 -115 -14 -150 25 -53 59 -50 130 8 180 40 36 95 41 144 16z
m-4842 -1239 c19 -19 26 -38 30 -79 4 -51 2 -57 -29 -92 -101 -110 -273 12
-204 145 36 70 146 84 203 26z m1201 15 c45 -24 65 -108 38 -161 -17 -33 -74
-70 -109 -70 -67 0 -128 58 -128 122 0 110 97 163 199 109z m1201 9 c62 -32
87 -120 51 -177 -43 -69 -135 -82 -192 -27 -107 102 10 271 141 204z m1230 -9
c81 -56 71 -174 -17 -216 -65 -31 -142 -3 -170 62 -48 116 84 225 187 154z
m1197 14 c42 -12 73 -62 73 -116 0 -133 -174 -176 -236 -58 -34 66 7 157 81
178 30 9 40 8 82 -4z m-40302 -6275 l280 -280 280 280 c265 264 283 280 317
280 27 0 41 -6 52 -22 35 -49 29 -57 -264 -356 l-281 -286 281 -281 c250 -251
280 -284 280 -313 0 -42 -30 -72 -72 -72 -29 0 -62 30 -313 280 l-280 280
-280 -280 c-257 -256 -284 -280 -315 -280 -45 0 -70 24 -70 69 0 33 18 54 280
316 l280 280 -280 280 c-256 257 -280 284 -280 315 0 45 24 70 69 70 33 0 54
-18 316 -280z m28260 -4097 c101 -25 212 -89 290 -168 80 -81 125 -152 163
-257 23 -64 26 -88 26 -203 0 -115 -3 -139 -26 -203 -38 -105 -83 -176 -163
-257 -123 -124 -278 -187 -455 -187 -181 0 -332 63 -462 194 -251 253 -251
653 0 906 170 171 393 234 627 175z m-38047 -4376 c2 -10 -3 -17 -12 -17 -18
0 -29 16 -21 31 9 14 29 6 33 -14z m10 -770 c3 -23 0 -27 -23 -27 -30 0 -43
24 -25 46 19 22 45 13 48 -19z m-760 -723 c34 -23 27 -83 -10 -104 -25 -13
-31 -13 -55 0 -37 20 -43 70 -14 99 25 25 49 27 79 5z m762 -29 c20 -24 3 -57
-28 -53 -27 3 -39 26 -28 54 7 18 40 18 56 -1z m760 -19 c0 -3 -4 -8 -10 -11
-5 -3 -10 -1 -10 4 0 6 5 11 10 11 6 0 10 -2 10 -4z"/>
<path d="M62393 29646 c-88 -22 -164 -66 -234 -135 -113 -112 -154 -222 -147
-385 6 -116 20 -159 86 -259 113 -173 339 -256 547 -202 190 50 339 221 368
420 50 347 -278 644 -620 561z"/>
<path d="M5900 19719 c-30 -5 -87 -25 -126 -44 -183 -89 -289 -259 -287 -460
2 -197 107 -362 286 -450 294 -143 644 31 713 353 7 37 14 83 14 102 0 19 -7
65 -14 102 -33 154 -131 280 -270 348 -111 54 -198 68 -316 49z"/>
<path d="M52353 6475 c-342 -96 -487 -483 -291 -776 97 -145 268 -227 448
-216 157 9 287 80 378 206 196 273 81 651 -235 771 -75 29 -225 37 -300 15z"/>
<path d="M3985 15454 c-2145 -635 -3917 -1159 -3937 -1164 l-38 -11 0 -7139 0
-7140 1445 0 c1416 1 1447 1 1478 20 41 25 83 25 125 0 30 -19 50 -20 312 -20
212 0 281 3 287 12 39 62 146 68 212 13 l29 -25 245 0 245 0 16 25 c22 34 87
65 136 65 49 0 111 -30 134 -64 l16 -26 224 0 223 0 11 24 c20 45 78 79 142
84 78 6 122 -11 169 -64 l39 -44 191 0 190 0 15 29 c8 15 31 42 50 58 97 86
252 62 325 -50 l24 -37 166 0 166 0 20 36 c74 138 271 167 381 56 17 -17 37
-44 44 -61 l12 -31 154 0 153 0 17 35 c22 47 93 109 142 123 121 36 249 -14
303 -119 l19 -39 153 0 152 0 13 30 c34 75 122 129 212 130 93 0 192 -61 221
-137 8 -23 10 -23 176 -23 l168 1 28 44 c79 125 285 125 364 0 l28 -44 193 -1
192 0 12 25 c15 33 89 82 137 90 64 11 120 -11 172 -66 l47 -49 214 0 214 0
23 31 c58 79 204 79 262 0 l23 -31 244 0 244 0 34 30 c45 39 93 47 150 25 25
-9 50 -26 57 -36 11 -18 28 -19 290 -19 264 0 280 1 304 20 35 27 102 27 136
0 25 -20 35 -21 354 -16 180 3 344 4 363 3 19 0 118 -1 219 -1 l185 -1 169
703 c156 650 168 705 153 721 -30 34 -15 91 25 91 11 0 20 14 27 43 140 559
1841 7664 1838 7673 -3 7 -1574 1503 -3493 3324 -1918 1822 -3526 3349 -3573
3394 -429 412 -691 656 -702 655 -7 0 -1768 -520 -3913 -1155z m2109 -8585
c-3 -5 -10 -7 -15 -3 -5 3 -7 10 -3 15 3 5 10 7 15 3 5 -3 7 -10 3 -15z m770
0 c-3 -5 -10 -7 -15 -3 -5 3 -7 10 -3 15 3 5 10 7 15 3 5 -3 7 -10 3 -15z
m776 6 c0 -8 -4 -15 -9 -15 -13 0 -22 16 -14 24 11 11 23 6 23 -9z m774 -6
c-3 -5 -10 -7 -15 -3 -5 3 -7 10 -3 15 3 5 10 7 15 3 5 -3 7 -10 3 -15z m770
0 c-3 -5 -10 -7 -15 -3 -5 3 -7 10 -3 15 3 5 10 7 15 3 5 -3 7 -10 3 -15z
m-3074 -744 c20 -24 3 -57 -28 -53 -30 3 -41 30 -22 53 16 19 34 19 50 0z
m780 -4 c20 -38 -13 -71 -51 -51 -21 12 -25 40 -7 58 18 18 46 14 58 -7z m776
-6 c7 -29 -10 -55 -36 -55 -26 0 -43 26 -36 55 5 20 13 25 36 25 23 0 31 -5
36 -25z m762 13 c18 -18 14 -46 -7 -58 -23 -12 -47 -5 -55 16 -15 38 34 70 62
42z m772 -3 c20 -25 8 -50 -25 -50 -21 0 -31 5 -33 18 -4 21 14 47 33 47 7 0
18 -7 25 -15z m-3863 -11 c3 -8 -2 -23 -11 -32 -14 -15 -18 -15 -31 -1 -9 9
-13 23 -9 32 8 21 43 22 51 1z m4632 3 c8 -10 7 -19 -4 -33 -13 -18 -15 -18
-31 -2 -18 18 -13 48 9 48 8 0 20 -6 26 -13z m-5414 -17 c0 -22 -29 -18 -33 3
-3 14 1 18 15 15 10 -2 18 -10 18 -18z m6183 3 c-2 -10 -10 -18 -18 -18 -8 0
-16 8 -18 18 -2 12 3 17 18 17 15 0 20 -5 18 -17z m-3853 -715 c50 -22 44
-103 -9 -121 -66 -22 -115 69 -60 112 31 24 35 25 69 9z m790 -13 c14 -13 25
-33 25 -45 0 -28 -43 -70 -71 -70 -32 0 -69 38 -69 71 0 31 40 69 72 69 10 0
30 -11 43 -25z m770 0 c32 -31 32 -59 -1 -91 -19 -20 -31 -24 -52 -19 -43 11
-53 25 -50 69 2 32 9 43 28 53 36 18 48 16 75 -12z m-2321 -1 c35 -34 10 -104
-37 -104 -28 0 -41 9 -56 38 -12 23 -1 58 23 74 19 13 54 9 70 -8z m3096 -4
c24 -24 25 -48 4 -78 -31 -45 -114 -18 -114 38 0 53 71 79 110 40z m-3864 -15
c15 -23 15 -27 0 -50 -11 -17 -26 -25 -44 -25 -35 0 -52 16 -52 50 0 34 17 50
52 50 18 0 33 -8 44 -25z m4632 13 c7 -7 12 -24 12 -38 0 -34 -17 -50 -52 -50
-18 0 -33 8 -44 25 -15 23 -15 27 0 50 18 27 63 34 84 13z m-5418 -13 c7 -9
10 -25 6 -40 -6 -22 -11 -26 -39 -23 -25 2 -33 8 -35 26 -2 13 -1 30 2 38 7
18 50 18 66 -1z m6185 -25 c0 -33 -2 -35 -35 -35 -29 0 -36 4 -38 23 -6 40 5
54 40 50 30 -3 33 -6 33 -38z m-6965 15 c10 -12 10 -18 0 -30 -25 -30 -61 -7
-46 30 3 8 12 15 19 15 8 0 20 -7 27 -15z m7728 -13 c4 -28 -24 -40 -45 -19
-14 13 -14 19 -3 32 18 22 44 15 48 -13z m-8508 -2 c0 -5 -7 -10 -15 -10 -8 0
-15 5 -15 10 0 6 7 10 15 10 8 0 15 -4 15 -10z m9268 -1 c-2 -6 -8 -10 -13
-10 -5 0 -11 4 -13 10 -2 6 4 11 13 11 9 0 15 -5 13 -11z m-5357 -708 c32 -33
37 -67 14 -110 -17 -33 -33 -41 -83 -41 -51 0 -82 32 -82 85 0 88 90 127 151
66z m773 4 c20 -19 26 -33 26 -68 0 -57 -34 -92 -90 -92 -56 0 -90 35 -90 92
0 57 35 93 90 93 25 0 45 -8 64 -25z m755 10 c33 -17 41 -33 41 -83 0 -50 -32
-82 -81 -82 -51 0 -67 8 -84 41 -23 43 -18 77 14 110 33 32 67 37 110 14z
m-2304 -20 c67 -66 -8 -171 -96 -135 -35 15 -49 37 -49 80 0 71 94 107 145 55z
m3090 0 c46 -45 24 -125 -40 -141 -82 -20 -140 82 -80 141 33 34 87 34 120 0z
m-3879 7 c16 -11 34 -48 34 -72 0 -30 -44 -70 -78 -70 -64 0 -99 83 -55 133
16 17 78 23 99 9z m4646 -9 c26 -23 24 -87 -4 -113 -68 -63 -171 40 -108 108
25 27 85 30 112 5z m-5418 -8 c26 -27 29 -56 9 -84 -29 -38 -74 -40 -102 -5
-25 32 -26 52 -5 82 18 26 74 30 98 7z m6179 3 c46 -36 16 -118 -43 -118 -38
0 -74 44 -65 80 8 32 31 50 65 50 14 0 34 -6 43 -12z m-6958 -18 c27 -29 10
-74 -28 -78 -36 -4 -57 13 -57 49 0 47 53 65 85 29z m7716 10 c23 -13 26 -62
5 -79 -46 -38 -111 25 -71 69 20 22 37 25 66 10z m-8500 -26 c9 -11 10 -20 2
-32 -13 -22 -43 -22 -56 -1 -24 38 25 68 54 33z m9276 0 c8 -22 -10 -49 -32
-49 -10 0 -22 7 -28 16 -15 24 -1 49 28 49 15 0 28 -7 32 -16z m758 -15 c0 -7
-8 -15 -17 -17 -18 -3 -25 18 -11 32 10 10 28 1 28 -15z m-10823 -4 c0 -5 -5
-11 -11 -13 -6 -2 -11 4 -11 13 0 9 5 15 11 13 6 -2 11 -8 11 -13z m3932 -695
c24 -24 29 -37 29 -75 0 -84 -81 -136 -156 -100 -67 32 -85 125 -34 173 52 49
112 49 161 2z m757 23 c71 -42 67 -168 -7 -201 -46 -22 -101 -15 -136 17 -30
27 -33 35 -33 86 0 51 3 59 33 86 38 34 97 39 143 12z m777 1 c53 -37 66 -110
29 -165 -43 -64 -134 -70 -188 -13 -19 21 -24 36 -24 81 0 49 3 58 33 84 26
23 41 29 80 29 27 0 57 -7 70 -16z m770 0 c28 -19 52 -65 52 -99 0 -34 -24
-80 -52 -99 -28 -20 -90 -21 -126 -2 -75 39 -74 161 0 203 32 17 99 16 126 -3z
m783 -21 c91 -86 -11 -232 -124 -178 -44 21 -71 73 -63 119 6 31 45 77 76 89
28 11 85 -4 111 -30z m-3907 17 c8 0 25 -12 40 -26 49 -49 29 -141 -36 -163
-84 -30 -164 56 -126 136 14 30 74 66 96 58 8 -3 19 -5 26 -5z m4664 -17 c48
-30 53 -111 9 -150 -29 -27 -68 -35 -105 -22 -64 22 -85 114 -36 162 38 39 82
42 132 10z m-5424 -4 c77 -35 44 -159 -42 -159 -45 0 -67 13 -82 49 -33 80 43
146 124 110z m6194 -9 c29 -27 37 -64 22 -101 -15 -35 -37 -49 -80 -49 -43 0
-65 14 -80 49 -25 61 15 121 80 121 23 0 44 -8 58 -20z m-6963 -15 c14 -13 25
-36 25 -50 0 -31 -41 -75 -70 -75 -101 0 -98 146 3 149 10 1 29 -10 42 -24z
m7709 14 c70 -32 42 -139 -35 -139 -28 0 -69 44 -69 75 0 28 40 75 64 75 8 0
26 -5 40 -11z m-8494 -29 c24 -24 25 -47 3 -72 -20 -22 -51 -23 -75 -1 -22 20
-23 51 -1 75 21 24 48 23 73 -2z m9274 4 c34 -34 9 -94 -39 -94 -30 0 -55 25
-55 55 0 30 25 55 55 55 13 0 31 -7 39 -16z m-10053 -20 c17 -21 0 -49 -32
-49 -24 0 -36 23 -25 51 7 19 40 18 57 -2z m10814 -19 c0 -25 -4 -30 -24 -30
-32 0 -49 28 -31 50 7 9 23 15 34 13 16 -2 21 -10 21 -33z m-11608 -11 c-9 -9
-28 6 -21 18 4 6 10 6 17 -1 6 -6 8 -13 4 -17z m12363 11 c0 -8 -4 -15 -10
-15 -5 0 -10 7 -10 15 0 8 5 15 10 15 6 0 10 -7 10 -15z m-6885 -654 c44 -24
67 -75 62 -134 -3 -40 -11 -56 -40 -84 -103 -104 -275 -5 -237 136 25 95 125
133 215 82z m774 2 c44 -34 64 -69 64 -115 0 -86 -59 -148 -141 -148 -155 0
-205 201 -67 271 47 24 105 21 144 -8z m770 -2 c45 -32 65 -68 65 -119 0 -110
-108 -174 -210 -126 -63 30 -93 128 -60 193 38 73 140 99 205 52z m-2346 5
c49 -21 79 -59 84 -109 9 -80 -49 -147 -130 -147 -142 0 -190 187 -64 249 49
25 67 26 110 7z m3104 -3 c53 -25 75 -66 70 -132 -3 -47 -9 -59 -40 -88 -35
-32 -57 -38 -117 -33 -87 6 -139 126 -90 205 37 60 110 80 177 48z m-3852 -21
c32 -27 43 -45 50 -79 13 -70 -46 -143 -117 -143 -78 0 -128 50 -128 128 0 95
123 154 195 94z m4608 14 c46 -19 69 -49 74 -99 9 -81 -42 -137 -126 -137 -72
0 -132 78 -116 150 8 36 56 87 88 93 40 8 47 7 80 -7z m-5383 -33 c22 -20 33
-40 36 -68 14 -115 -137 -169 -197 -71 -30 49 -25 92 15 132 45 45 101 47 146
7z m6186 -7 c25 -25 34 -43 34 -67 0 -113 -144 -159 -201 -65 -30 49 -25 92
15 132 28 28 42 34 76 34 34 0 48 -6 76 -34z m-6975 1 c47 -36 51 -97 10 -138
-66 -66 -171 -8 -154 85 11 54 100 87 144 53z m7733 -8 c21 -17 26 -29 26 -65
0 -57 -35 -94 -87 -94 -43 0 -93 46 -93 85 0 31 24 81 42 88 32 13 87 6 112
-14z m-8510 -15 c46 -45 19 -116 -46 -122 -29 -2 -40 2 -57 24 -26 34 -27 68
-1 94 24 24 82 27 104 4z m9270 0 c48 -47 18 -119 -49 -119 -29 0 -42 6 -58
27 -35 47 -3 108 58 108 18 0 41 -7 49 -16z m-10056 -16 c19 -19 15 -66 -7
-78 -41 -21 -81 0 -81 44 0 29 18 46 50 46 14 0 31 -5 38 -12z m10822 -9 c26
-47 -25 -100 -69 -72 -20 13 -26 60 -10 79 18 22 66 18 79 -7z m-11602 -26 c3
-22 -28 -40 -48 -28 -12 7 -13 38 -3 49 15 14 48 1 51 -21z m12360 -1 c4 -28
-24 -40 -45 -19 -21 21 -9 49 19 45 15 -2 24 -11 26 -26z m-6915 -616 c73 -30
119 -126 97 -200 -16 -54 -76 -112 -123 -121 -77 -15 -154 20 -189 85 -26 48
-21 134 12 179 42 61 134 86 203 57z m792 -9 c117 -66 111 -244 -11 -302 -52
-25 -132 -17 -177 18 -98 74 -86 230 21 287 50 26 117 25 167 -3z m783 -10
c52 -34 75 -85 70 -152 -5 -63 -35 -108 -88 -135 -136 -69 -293 68 -235 206
45 109 157 145 253 81z m-2344 3 c57 -28 79 -63 84 -130 4 -71 -19 -116 -78
-147 -109 -58 -230 12 -230 133 0 66 27 113 80 141 53 28 92 29 144 3z m3115
-9 c86 -62 87 -200 1 -261 -62 -44 -149 -38 -204 13 -81 77 -63 210 36 261 45
23 125 17 167 -13z m-3880 -10 c66 -46 85 -115 52 -183 -26 -54 -70 -82 -132
-82 -81 0 -139 60 -139 142 0 72 30 114 97 137 44 15 88 10 122 -14z m4634 2
c60 -30 86 -127 52 -193 -53 -103 -216 -97 -259 10 -20 50 -20 83 -2 118 43
82 125 107 209 65z m-5424 -11 c99 -53 88 -194 -17 -232 -37 -13 -47 -13 -84
0 -106 37 -117 183 -18 232 45 23 77 23 119 0z m6182 3 c39 -21 69 -71 69
-115 0 -129 -173 -177 -240 -67 -68 111 55 242 171 182z m-6955 -24 c93 -57
47 -201 -64 -201 -51 0 -102 54 -102 108 0 89 90 139 166 93z m7747 -21 c40
-45 38 -101 -7 -146 -25 -25 -43 -34 -67 -34 -79 0 -133 72 -109 146 26 77
127 97 183 34z m-8524 -6 c77 -64 3 -182 -90 -144 -36 15 -49 37 -49 82 0 78
79 113 139 62z m9254 14 c33 -17 46 -39 47 -76 0 -45 -13 -67 -49 -82 -60 -25
-121 15 -121 79 1 70 65 111 123 79z m-10038 -33 c14 -13 25 -33 25 -45 0 -26
-43 -70 -67 -70 -10 0 -29 7 -41 16 -33 23 -28 93 8 111 36 18 48 16 75 -12z
m10823 -2 c29 -39 -1 -113 -47 -113 -29 0 -71 39 -71 66 0 38 45 77 78 69 15
-3 33 -13 40 -22z m-11608 -18 c7 -9 10 -25 6 -40 -6 -22 -11 -26 -39 -23 -25
2 -33 8 -35 26 -2 13 -1 30 2 38 7 18 50 18 66 -1z m12365 -25 c0 -33 -2 -35
-35 -35 -29 0 -36 4 -38 23 -5 32 16 54 47 50 22 -3 26 -8 26 -38z m-13150 0
c0 -8 -8 -16 -17 -18 -13 -2 -18 3 -18 18 0 15 5 20 18 18 9 -2 17 -10 17 -18z
m7042 -606 c49 -28 93 -107 93 -166 0 -216 -301 -275 -385 -76 -22 54 -19 107
11 166 52 105 173 138 281 76z m-809 11 c49 -21 81 -52 103 -100 51 -110 -9
-233 -129 -265 -137 -36 -268 97 -231 234 30 114 150 175 257 131z m1561 -5
c88 -44 130 -141 100 -231 -45 -132 -205 -180 -309 -92 -105 88 -88 262 32
322 55 27 126 28 177 1z m-2326 -10 c106 -50 136 -190 61 -280 -37 -43 -78
-61 -139 -61 -82 0 -138 37 -170 113 -27 66 -13 136 36 187 59 62 136 77 212
41z m3094 1 c63 -29 98 -88 98 -166 0 -79 -29 -125 -99 -160 -76 -38 -146 -28
-207 30 -60 56 -75 135 -40 210 43 94 149 130 248 86z m-3848 -31 c19 -13 42
-43 53 -68 63 -141 -85 -281 -222 -210 -61 31 -90 77 -90 141 0 62 29 117 79
146 49 29 133 25 180 -9z m4618 14 c53 -26 83 -78 83 -145 0 -95 -59 -159
-152 -166 -71 -5 -124 25 -156 87 -75 145 75 295 225 224z m-5410 -24 c62 -37
85 -134 47 -198 -20 -35 -81 -72 -118 -72 -149 0 -207 195 -81 271 40 25 111
25 152 -1z m6197 -10 c68 -60 72 -153 10 -215 -59 -59 -149 -59 -208 0 -62 62
-58 155 10 215 30 26 42 30 94 30 52 0 64 -4 94 -30z m-6984 -7 c69 -40 80
-143 21 -195 -115 -102 -274 46 -179 167 36 47 106 59 158 28z m7731 0 c56
-33 75 -112 39 -170 -66 -109 -230 -65 -230 62 0 100 104 159 191 108z m-8521
-18 c37 -19 50 -43 50 -93 0 -55 -38 -92 -94 -92 -52 0 -81 20 -96 65 -29 89
57 163 140 120z m9290 -12 c86 -78 3 -214 -103 -169 -72 30 -86 120 -26 170
42 35 89 35 129 -1z m768 -30 c64 -71 -45 -167 -115 -101 -26 24 -31 74 -10
100 35 44 86 45 125 1z m-10819 1 c28 -35 26 -69 -4 -99 -42 -42 -104 -30
-124 25 -19 55 12 100 70 100 29 0 42 -6 58 -26z m-798 -4 c40 -22 11 -100
-38 -100 -20 0 -43 30 -43 59 0 46 36 64 81 41z m-783 -42 c-2 -15 -10 -23
-23 -23 -13 0 -21 8 -23 23 -3 18 1 22 23 22 22 0 26 -4 23 -22z m7033 -575
c76 -39 112 -93 117 -177 5 -83 -11 -129 -62 -180 -82 -82 -210 -89 -299 -15
-126 104 -101 306 46 375 70 32 129 31 198 -3z m-749 -18 c90 -64 119 -195 64
-289 -40 -68 -93 -100 -176 -104 -53 -3 -75 0 -106 16 -166 85 -166 314 1 394
62 29 161 21 217 -17z m1506 19 c217 -90 150 -414 -86 -414 -77 0 -136 31
-178 92 -54 80 -54 166 0 246 56 83 169 116 264 76z m-2343 -5 c55 -15 120
-82 135 -138 25 -95 -18 -193 -104 -236 -66 -33 -120 -32 -187 3 -123 64 -144
229 -41 325 53 50 122 66 197 46z m3090 0 c55 -15 120 -82 135 -139 27 -101
-18 -196 -115 -241 -58 -27 -113 -24 -176 9 -123 64 -144 229 -41 325 53 50
122 66 197 46z m-3834 -34 c94 -49 120 -198 48 -280 -85 -96 -242 -77 -298 37
-27 56 -27 110 0 165 44 90 157 126 250 78z m4650 -10 c48 -31 79 -90 79 -150
0 -139 -141 -225 -267 -164 -72 35 -114 129 -93 208 33 122 175 176 281 106z
m760 -20 c101 -65 87 -225 -25 -276 -52 -23 -80 -23 -132 0 -138 63 -117 268
30 301 43 10 85 2 127 -25z m-6190 3 c78 -44 100 -147 47 -224 -65 -95 -222
-84 -269 20 -24 53 -24 90 2 143 38 78 139 107 220 61z m-796 -12 c95 -40 99
-192 6 -241 -119 -61 -246 68 -180 184 36 65 102 87 174 57z m7740 -6 c36 -22
65 -73 65 -114 0 -79 -60 -136 -144 -136 -43 0 -53 4 -87 39 -36 35 -39 43
-39 93 0 33 6 62 16 77 42 59 129 78 189 41z m-8507 -26 c31 -20 54 -77 46
-112 -9 -39 -52 -81 -90 -88 -105 -20 -174 115 -96 188 42 41 90 44 140 12z
m9284 -12 c56 -52 41 -144 -29 -177 -106 -51 -210 80 -134 169 43 50 115 54
163 8z m-10061 -21 c31 -31 36 -59 17 -94 -26 -50 -86 -62 -132 -26 -20 16
-26 29 -26 60 0 83 83 118 141 60z m10819 4 c53 -56 15 -145 -62 -145 -79 0
-117 86 -63 144 33 36 92 36 125 1z m-11608 -22 c46 -41 -6 -116 -65 -94 -25
10 -37 29 -37 61 0 45 65 66 102 33z m-792 -18 c18 -22 8 -50 -19 -50 -32 0
-49 28 -32 49 17 20 35 20 51 1z"/>
<path d="M62000 11165 c-874 -97 -1770 -541 -2675 -1327 -191 -165 -655 -631
-836 -838 -341 -391 -535 -651 -1189 -1590 -579 -833 -875 -1239 -1172 -1608
l-140 -174 89 48 c48 26 93 51 98 55 25 18 488 245 621 304 691 307 1318 473
2019 535 66 6 242 13 390 17 1168 25 2407 -277 3590 -877 1091 -553 2051
-1305 2977 -2330 795 -881 1488 -1859 2307 -3257 l72 -123 929 0 930 0 0 2820
0 2820 -73 0 c-95 0 -310 17 -462 36 -821 104 -1523 460 -2185 1109 -423 414
-707 768 -1370 1705 -441 623 -579 810 -801 1085 -606 752 -1157 1189 -1802
1429 -213 80 -488 142 -726 166 -137 13 -448 11 -591 -5z"/>
<path d="M37155 6549 c-1183 -49 -2305 -481 -3420 -1317 -689 -517 -1392
-1220 -2056 -2057 -390 -491 -732 -974 -1469 -2070 -233 -346 -494 -734 -582
-862 -87 -127 -158 -234 -158 -237 0 -3 1551 -5 3446 -4 l3447 3 67 160 c257
612 572 1160 984 1712 290 390 550 684 933 1054 902 872 2016 1552 3185 1943
192 65 500 156 525 156 7 0 13 4 13 9 0 16 -662 361 -1020 532 -1180 561
-2128 856 -3063 954 -131 13 -577 37 -632 33 -11 -1 -101 -5 -200 -9z"/>
<path d="M59010 6444 c-784 -56 -1420 -215 -2158 -540 -382 -168 -1137 -581
-1192 -652 -52 -65 -318 -338 -460 -470 -668 -623 -1308 -1016 -2052 -1262
-173 -58 -183 -62 -425 -208 -996 -598 -1806 -921 -2663 -1061 -1196 -195
-2501 22 -3995 664 -723 311 -1348 637 -2784 1453 l-644 365 -72 -12 c-40 -6
-163 -34 -273 -61 -1000 -245 -1909 -667 -2762 -1284 -211 -152 -514 -394
-640 -512 -25 -23 -73 -66 -107 -95 -100 -87 -480 -473 -605 -614 -465 -526
-854 -1098 -1152 -1694 -78 -154 -206 -435 -206 -450 0 -8 4652 -11 15580 -11
l15581 0 -17 33 c-37 72 -441 737 -584 962 -917 1441 -1872 2577 -2856 3397
-882 733 -1925 1327 -2929 1668 -568 192 -1093 307 -1675 366 -147 14 -779 27
-910 18z"/>
<path d="M43580 4850 c-266 -15 -727 -67 -713 -80 24 -22 1382 -786 1758 -990
1686 -912 2972 -1357 4170 -1440 200 -14 695 -10 870 6 773 73 1451 279 2262
688 209 105 595 317 590 323 -2 1 -57 -7 -122 -17 -757 -121 -1604 -74 -2605
146 -548 120 -1069 267 -2200 619 -430 134 -915 278 -1175 350 -765 210 -1443
340 -2005 385 -184 15 -653 20 -830 10z"/>
</g>
</svg>
